<svg xmlns="http://www.w3.org/2000/svg" xmlns:xlink="http://www.w3.org/1999/xlink" viewBox="0 0 184.75 173.9">
  <defs>
    <style>
      .cls-1 {
        isolation: isolate;
      }

      .cls-2 {
        opacity: 0.43;
        fill: url(#铃琨眄沭噤桢眚_615);
      }

      .cls-2, .cls-29, .cls-3, .cls-30 {
        mix-blend-mode: screen;
      }

      .cls-3 {
        fill: url(#铃琨眄沭噤桢眚_350);
      }

      .cls-4 {
        fill: #44030c;
      }

      .cls-5 {
        fill: url(#铃琨眄沭噤桢眚_577);
      }

      .cls-6 {
        fill: #1e0305;
      }

      .cls-7 {
        fill: #9c3f23;
      }

      .cls-8 {
        fill: #d76f0f;
      }

      .cls-9 {
        fill: #dd750e;
      }

      .cls-10 {
        fill: #e57b13;
      }

      .cls-11 {
        fill: #d06913;
      }

      .cls-12 {
        fill: #a44423;
      }

      .cls-13 {
        fill: #872c21;
      }

      .cls-14 {
        fill: #ed8217;
      }

      .cls-15 {
        fill: #ba571f;
      }

      .cls-16 {
        fill: #c96218;
      }

      .cls-17 {
        fill: #72181a;
      }

      .cls-18 {
        fill: #641014;
      }

      .cls-19 {
        fill: #6b1217;
      }

      .cls-20 {
        fill: #791f1c;
      }

      .cls-21 {
        fill: #80251f;
      }

      .cls-22 {
        fill: #5d0d11;
      }

      .cls-23 {
        fill: #f1881a;
      }

      .cls-24 {
        opacity: 0.1;
      }

      .cls-25 {
        fill: url(#铃琨眄沭噤桢眚_380);
      }

      .cls-26 {
        fill: url(#铃琨眄沭噤桢眚_74);
      }

      .cls-27 {
        fill: url(#铃琨眄沭噤桢眚_105);
      }

      .cls-28 {
        mix-blend-mode: multiply;
      }

      .cls-29 {
        opacity: 0.2;
        fill: url(#铃琨眄沭噤桢眚_423);
      }

      .cls-30, .cls-31 {
        opacity: 0.4;
      }

      .cls-30 {
        fill: url(#铃琨眄沭噤桢眚_563);
      }

      .cls-31 {
        fill: url(#铃琨眄沭噤桢眚_380-2);
      }

      .cls-32 {
        opacity: 0.49;
        fill: url(#铃琨眄沭噤桢眚_380-3);
      }

      .cls-33 {
        fill: url(#铃琨眄沭噤桢眚_565);
      }

      .cls-34 {
        fill: url(#铃琨眄沭噤桢眚_570);
      }

      .cls-35 {
        fill: url(#铃琨眄沭噤桢眚_565-2);
      }

      .cls-36 {
        fill: url(#铃琨眄沭噤桢眚_570-2);
      }

      .cls-37 {
        fill: url(#铃琨眄沭噤桢眚_565-3);
      }

      .cls-38 {
        fill: url(#铃琨眄沭噤桢眚_570-3);
      }

      .cls-39 {
        fill: #310304;
      }

      .cls-40 {
        fill: #3b0905;
      }

      .cls-41 {
        fill: #440f08;
      }

      .cls-42 {
        fill: #4e170e;
      }

      .cls-43 {
        fill: #571c11;
      }

      .cls-44 {
        fill: #622315;
      }

      .cls-45 {
        fill: #6a2918;
      }

      .cls-46 {
        fill: #732f1c;
      }

      .cls-47 {
        fill: #7c361f;
      }

      .cls-48 {
        fill: #853d21;
      }

      .cls-49 {
        fill: #8e4323;
      }

      .cls-50 {
        fill: #984a23;
      }

      .cls-51 {
        fill: #a14f23;
      }

      .cls-52 {
        fill: #aa5622;
      }

      .cls-53 {
        fill: #b45d20;
      }

      .cls-54 {
        fill: #be621c;
      }

      .cls-55 {
        fill: #c66818;
      }

      .cls-56 {
        fill: #cf6f12;
      }

      .cls-57 {
        fill: #d8740e;
      }

      .cls-58 {
        fill: #e27b11;
      }

      .cls-59 {
        fill: #eb8115;
      }

      .cls-60 {
        fill: #49050b;
      }

      .cls-61 {
        fill: #4e070c;
      }

      .cls-62 {
        fill: #51090d;
      }

      .cls-63 {
        fill: #560b0f;
      }

      .cls-64 {
        fill: #5a0c11;
      }

      .cls-65 {
        fill: #5f0e12;
      }

      .cls-66 {
        fill: #630f14;
      }

      .cls-67 {
        fill: #671116;
      }

      .cls-68 {
        fill: #6b1317;
      }

      .cls-69 {
        fill: #711419;
      }

      .cls-70 {
        fill: #74161b;
      }

      .cls-71 {
        fill: #79171c;
      }

      .cls-72 {
        fill: #7d181d;
      }

      .cls-73 {
        fill: #811a1f;
      }

      .cls-74 {
        fill: #851b20;
      }

      .cls-75 {
        fill: #8a1c21;
      }

      .cls-76 {
        fill: #8e1d22;
      }

      .cls-77 {
        fill: #921d22;
      }

      .cls-78 {
        fill: #961e23;
      }

      .cls-79 {
        fill: #9b1e23;
      }

      .cls-80 {
        fill: #a01f24;
      }

      .cls-81 {
        fill: #ef7f17;
      }

      .cls-82 {
        fill: #ea521a;
      }

      .cls-83 {
        fill: #cc2e1b;
      }

      .cls-84 {
        fill: #661115;
      }

      .cls-85 {
        fill: url(#铃琨眄沭噤桢眚_415);
      }

      .cls-86 {
        font-size: 47px;
        fill: #d13719;
        font-family: Arial-Black, Arial Black;
        font-weight: 800;
      }
    </style>
    <linearGradient id="铃琨眄沭噤桢眚_615" data-name="铃琨眄沭噤桢眚 615" x1="43.09" y1="181.7" x2="175.37" y2="49.42" gradientUnits="userSpaceOnUse">
      <stop offset="0" stop-color="#040000"/>
      <stop offset="0.07" stop-color="#323232"/>
      <stop offset="0.16" stop-color="#1b1919"/>
      <stop offset="0.25" stop-color="#0a0707"/>
      <stop offset="0.31" stop-color="#040000"/>
      <stop offset="0.34" stop-color="#090606"/>
      <stop offset="0.38" stop-color="#181616"/>
      <stop offset="0.42" stop-color="#313131"/>
      <stop offset="0.42" stop-color="#323232"/>
      <stop offset="0.44" stop-color="#212020"/>
      <stop offset="0.46" stop-color="#110e0e"/>
      <stop offset="0.48" stop-color="#070303"/>
      <stop offset="0.51" stop-color="#040000"/>
      <stop offset="0.62" stop-color="#060202"/>
      <stop offset="0.66" stop-color="#0c0909"/>
      <stop offset="0.69" stop-color="#171414"/>
      <stop offset="0.72" stop-color="#262525"/>
      <stop offset="0.73" stop-color="#323232"/>
      <stop offset="0.76" stop-color="#212020"/>
      <stop offset="0.79" stop-color="#110e0e"/>
      <stop offset="0.83" stop-color="#070303"/>
      <stop offset="0.88" stop-color="#040000"/>
      <stop offset="0.95" stop-color="#323232"/>
      <stop offset="0.96" stop-color="#212020"/>
      <stop offset="0.97" stop-color="#110e0e"/>
      <stop offset="0.98" stop-color="#070303"/>
      <stop offset="1" stop-color="#040000"/>
    </linearGradient>
    <radialGradient id="铃琨眄沭噤桢眚_350" data-name="铃琨眄沭噤桢眚 350" cx="117.93" cy="104.9" r="41.66" gradientUnits="userSpaceOnUse">
      <stop offset="0.88" stop-color="#040000"/>
      <stop offset="0.89" stop-color="#0b0201"/>
      <stop offset="0.91" stop-color="#1d0603"/>
      <stop offset="0.92" stop-color="#3b0d07"/>
      <stop offset="0.94" stop-color="#65160d"/>
      <stop offset="0.96" stop-color="#9b2314"/>
      <stop offset="0.98" stop-color="#cc2e1b"/>
    </radialGradient>
    <linearGradient id="铃琨眄沭噤桢眚_577" data-name="铃琨眄沭噤桢眚 577" x1="175.15" y1="180.01" x2="187.37" y2="180.01" gradientUnits="userSpaceOnUse">
      <stop offset="0" stop-color="#44030c"/>
      <stop offset="0.23" stop-color="#47040d"/>
      <stop offset="0.44" stop-color="#520710"/>
      <stop offset="0.63" stop-color="#640d14"/>
      <stop offset="0.81" stop-color="#7d141b"/>
      <stop offset="0.98" stop-color="#9d1e23"/>
      <stop offset="1" stop-color="#a01f24"/>
    </linearGradient>
    <linearGradient id="铃琨眄沭噤桢眚_380" data-name="铃琨眄沭噤桢眚 380" x1="117.93" y1="180.37" x2="117.93" y2="24.9" gradientUnits="userSpaceOnUse">
      <stop offset="0" stop-color="#2e0602"/>
      <stop offset="0.45" stop-color="#300603"/>
      <stop offset="0.61" stop-color="#370805"/>
      <stop offset="0.73" stop-color="#420b09"/>
      <stop offset="0.82" stop-color="#530f0e"/>
      <stop offset="0.9" stop-color="#691415"/>
      <stop offset="0.97" stop-color="#841a1e"/>
      <stop offset="1" stop-color="#911d22"/>
    </linearGradient>
    <radialGradient id="铃琨眄沭噤桢眚_74" data-name="铃琨眄沭噤桢眚 74" cx="97.8" cy="86.95" r="41.45" gradientUnits="userSpaceOnUse">
      <stop offset="0.59" stop-color="#ef7f1b"/>
      <stop offset="0.61" stop-color="#f0841b"/>
      <stop offset="0.66" stop-color="#f18f1a"/>
      <stop offset="0.73" stop-color="#f2921a"/>
      <stop offset="0.73" stop-color="#e98c19"/>
      <stop offset="0.76" stop-color="#b46c13"/>
      <stop offset="0.79" stop-color="#854f0e"/>
      <stop offset="0.82" stop-color="#5d370a"/>
      <stop offset="0.86" stop-color="#3d2306"/>
      <stop offset="0.89" stop-color="#241303"/>
      <stop offset="0.92" stop-color="#120902"/>
      <stop offset="0.96" stop-color="#070200"/>
      <stop offset="1" stop-color="#040000"/>
    </radialGradient>
    <radialGradient id="铃琨眄沭噤桢眚_105" data-name="铃琨眄沭噤桢眚 105" cx="-4272.92" cy="-20.89" r="40.47" gradientTransform="translate(-4175.3 76.5) rotate(180)" gradientUnits="userSpaceOnUse">
      <stop offset="0" stop-color="#2b0405"/>
      <stop offset="0.08" stop-color="#260405"/>
      <stop offset="0.37" stop-color="#1b0306"/>
      <stop offset="0.67" stop-color="#170306"/>
      <stop offset="1" stop-color="#040000"/>
    </radialGradient>
    <linearGradient id="铃琨眄沭噤桢眚_423" data-name="铃琨眄沭噤桢眚 423" x1="129.35" y1="134.57" x2="107.56" y2="77.98" gradientUnits="userSpaceOnUse">
      <stop offset="0" stop-color="#fff"/>
      <stop offset="0.01" stop-color="#f8f7f7"/>
      <stop offset="0.09" stop-color="#bfbebe"/>
      <stop offset="0.17" stop-color="#8d8b8b"/>
      <stop offset="0.25" stop-color="#636161"/>
      <stop offset="0.33" stop-color="#413e3e"/>
      <stop offset="0.41" stop-color="#262323"/>
      <stop offset="0.5" stop-color="#130f0f"/>
      <stop offset="0.58" stop-color="#080404"/>
      <stop offset="0.67" stop-color="#040000"/>
    </linearGradient>
    <radialGradient id="铃琨眄沭噤桢眚_563" data-name="铃琨眄沭噤桢眚 563" cx="119.46" cy="104.56" r="121.15" gradientUnits="userSpaceOnUse">
      <stop offset="0.81" stop-color="#410206"/>
      <stop offset="0.92" stop-color="#240306"/>
      <stop offset="1" stop-color="#120306"/>
    </radialGradient>
    <linearGradient id="铃琨眄沭噤桢眚_380-2" x1="205.46" y1="16.97" x2="184.03" y2="38.57" xlink:href="#铃琨眄沭噤桢眚_380"/>
    <linearGradient id="铃琨眄沭噤桢眚_380-3" x1="-4961.46" y1="677.67" x2="-4982.88" y2="699.28" gradientTransform="translate(-4931.07 870.5) rotate(180)" xlink:href="#铃琨眄沭噤桢眚_380"/>
    <linearGradient id="铃琨眄沭噤桢眚_565" data-name="铃琨眄沭噤桢眚 565" x1="179.86" y1="128.37" x2="179.86" y2="164.39" gradientUnits="userSpaceOnUse">
      <stop offset="0" stop-color="#2e0303"/>
      <stop offset="0.42" stop-color="#300303"/>
      <stop offset="0.56" stop-color="#370505"/>
      <stop offset="0.67" stop-color="#420707"/>
      <stop offset="0.76" stop-color="#530a0a"/>
      <stop offset="0.83" stop-color="#690f0e"/>
      <stop offset="0.9" stop-color="#851413"/>
      <stop offset="0.95" stop-color="#a41a19"/>
      <stop offset="1" stop-color="#c3201f"/>
    </linearGradient>
    <linearGradient id="铃琨眄沭噤桢眚_570" data-name="铃琨眄沭噤桢眚 570" x1="179.86" y1="156.95" x2="179.86" y2="168.39" gradientUnits="userSpaceOnUse">
      <stop offset="0" stop-color="#ea521a"/>
      <stop offset="0.52" stop-color="#e9501a"/>
      <stop offset="0.7" stop-color="#e3491b"/>
      <stop offset="0.84" stop-color="#da3e1c"/>
      <stop offset="0.94" stop-color="#cd2d1e"/>
      <stop offset="1" stop-color="#c3201f"/>
    </linearGradient>
    <linearGradient id="铃琨眄沭噤桢眚_565-2" x1="176.41" y1="136.23" x2="176.41" y2="165.49" xlink:href="#铃琨眄沭噤桢眚_565"/>
    <linearGradient id="铃琨眄沭噤桢眚_570-2" x1="176.41" y1="159.45" x2="176.41" y2="168.73" xlink:href="#铃琨眄沭噤桢眚_570"/>
    <linearGradient id="铃琨眄沭噤桢眚_565-3" x1="172.95" y1="151.43" x2="172.95" y2="167.61" xlink:href="#铃琨眄沭噤桢眚_565"/>
    <linearGradient id="铃琨眄沭噤桢眚_570-3" x1="172.95" y1="163.31" x2="172.95" y2="169.27" xlink:href="#铃琨眄沭噤桢眚_570"/>
    <linearGradient id="铃琨眄沭噤桢眚_415" data-name="铃琨眄沭噤桢眚 415" x1="55.66" y1="83.18" x2="119.75" y2="83.18" gradientUnits="userSpaceOnUse">
      <stop offset="0" stop-color="#f1881a"/>
      <stop offset="0.2" stop-color="#f18b1d"/>
      <stop offset="0.34" stop-color="#f19425"/>
      <stop offset="0.47" stop-color="#f2a434"/>
      <stop offset="0.58" stop-color="#f3bb49"/>
      <stop offset="0.69" stop-color="#f4d764"/>
      <stop offset="0.77" stop-color="#f5f07b"/>
    </linearGradient>
  </defs>
  <title>S</title>
  <g class="cls-1">
    <g id="S">
      <g id="icons">
        <g id="图层_4" data-name="图层 4">
          <path class="cls-2" d="M134.81,189.65a86.67,86.67,0,0,0,67.87-67.87v67.87Zm-45-3A78.72,78.72,0,0,1,36.2,133,86.86,86.86,0,0,0,89.83,186.62ZM33.17,26.85a6.72,6.72,0,0,1,6.71-6.71H101A86.67,86.67,0,0,0,33.17,88ZM199.65,76.8A86.79,86.79,0,0,0,146,23.18,78.68,78.68,0,0,1,199.65,76.8Z" transform="translate(-20.12 -17.95)"/>
          <path class="cls-3" d="M117.93,63.23a41.67,41.67,0,1,0,41.66,41.67A41.67,41.67,0,0,0,117.93,63.23Zm0,74.27a32.6,32.6,0,1,1,32.59-32.6A32.6,32.6,0,0,1,117.93,137.5Z" transform="translate(-20.12 -17.95)"/>
          <g>
            <path class="cls-4" d="M40.51,26.09c0-1.22.54-1.84,1.62-1.84s1.58.62,1.58,1.84-.53,1.83-1.58,1.83S40.51,27.31,40.51,26.09Zm1.62,1.25c.59,0,.89-.42.89-1.26s-.3-1.24-.89-1.24-.92.41-.92,1.24S41.51,27.34,42.13,27.34Z" transform="translate(-20.12 -17.95)"/>
            <polygon class="cls-4" points="24.45 9.95 24.45 6.89 24.07 6.89 24.07 6.61 25.12 6.26 25.12 9.95 24.45 9.95"/>
            <path class="cls-4" d="M47.84,25.85v.53h-1.9v-.53Zm0,.91v.53h-1.9v-.53Z" transform="translate(-20.12 -17.95)"/>
            <polygon class="cls-4" points="28.6 9.95 28.6 6.89 28.22 6.89 28.22 6.61 29.27 6.26 29.27 9.95 28.6 9.95"/>
            <path class="cls-4" d="M50.28,24.28h2.16v.53H50.86l-.06.89a1.13,1.13,0,0,1,.42-.05c.91,0,1.36.37,1.36,1.11s-.47,1.16-1.41,1.16a3.6,3.6,0,0,1-1-.15v-.55a3.38,3.38,0,0,0,1,.17q.72,0,.72-.63c0-.39-.23-.58-.69-.58a4.55,4.55,0,0,0-1.07.12Z" transform="translate(-20.12 -17.95)"/>
            <path class="cls-4" d="M53,26.09c0-1.22.54-1.84,1.61-1.84s1.59.62,1.59,1.84-.53,1.83-1.59,1.83S53,27.31,53,26.09Zm1.61,1.25c.6,0,.89-.42.89-1.26s-.29-1.24-.89-1.24-.91.41-.91,1.24S54,27.34,54.61,27.34Z" transform="translate(-20.12 -17.95)"/>
          </g>
          <g>
            <path class="cls-4" d="M40.51,31.94c0-1.23.54-1.84,1.62-1.84s1.58.61,1.58,1.84-.53,1.83-1.58,1.83S40.51,33.16,40.51,31.94Zm1.62,1.25c.59,0,.89-.42.89-1.27s-.3-1.24-.89-1.24-.92.42-.92,1.24S41.51,33.19,42.13,33.19Z" transform="translate(-20.12 -17.95)"/>
            <path class="cls-4" d="M44.19,33.74v-.5c1.21-.84,1.81-1.52,1.81-2,0-.35-.22-.53-.65-.53A2,2,0,0,0,44.3,31v-.61a2.23,2.23,0,0,1,1.05-.25c.88,0,1.32.35,1.32,1.06s-.48,1.29-1.45,2h1.45v.58Z" transform="translate(-20.12 -17.95)"/>
            <path class="cls-4" d="M49.08,31.69v.53h-1.9v-.53Zm0,.91v.54h-1.9V32.6Z" transform="translate(-20.12 -17.95)"/>
            <polygon class="cls-4" points="29.84 15.8 29.84 12.73 29.46 12.73 29.46 12.46 30.51 12.1 30.51 15.8 29.84 15.8"/>
            <polygon class="cls-4" points="31.59 15.8 31.59 12.73 31.21 12.73 31.21 12.46 32.26 12.1 32.26 15.8 31.59 15.8"/>
            <path class="cls-4" d="M53.08,33.74v-.5c1.2-.84,1.81-1.52,1.81-2,0-.35-.22-.53-.66-.53a2.07,2.07,0,0,0-1,.28v-.61a2.26,2.26,0,0,1,1-.25c.88,0,1.33.35,1.33,1.06s-.49,1.29-1.45,2h1.45v.58Z" transform="translate(-20.12 -17.95)"/>
          </g>
          <g>
            <path class="cls-4" d="M40.51,37.78c0-1.22.54-1.84,1.62-1.84s1.58.62,1.58,1.84-.53,1.83-1.58,1.83S40.51,39,40.51,37.78ZM42.13,39c.59,0,.89-.42.89-1.26s-.3-1.24-.89-1.24-.92.41-.92,1.24S41.51,39,42.13,39Z" transform="translate(-20.12 -17.95)"/>
            <path class="cls-4" d="M44.19,39.59v-.51c1.21-.84,1.81-1.51,1.81-2s-.22-.53-.65-.53a2.13,2.13,0,0,0-1.05.27v-.6a2.24,2.24,0,0,1,1.05-.26c.88,0,1.32.36,1.32,1.07s-.48,1.29-1.45,2h1.45v.58Z" transform="translate(-20.12 -17.95)"/>
            <path class="cls-4" d="M49.08,37.54v.53h-1.9v-.53Zm0,.91V39h-1.9v-.53Z" transform="translate(-20.12 -17.95)"/>
            <path class="cls-4" d="M49.58,36.1a3.47,3.47,0,0,1,1.07-.16q1.35,0,1.35,1a.82.82,0,0,1-.48.82.83.83,0,0,1,.48.83c0,.69-.45,1-1.35,1a3.79,3.79,0,0,1-1.07-.15v-.61a3.21,3.21,0,0,0,1.07.18c.45,0,.68-.18.68-.53s-.16-.46-.49-.46H50v-.58h.88c.33,0,.49-.15.49-.45s-.23-.48-.68-.48a3.47,3.47,0,0,0-1.07.17Z" transform="translate(-20.12 -17.95)"/>
            <path class="cls-4" d="M52.41,39.59v-.51c1.2-.84,1.8-1.51,1.8-2s-.21-.53-.65-.53a2.16,2.16,0,0,0-1.05.27v-.6a2.27,2.27,0,0,1,1.05-.26c.88,0,1.32.36,1.32,1.07s-.48,1.29-1.44,2h1.44v.58Z" transform="translate(-20.12 -17.95)"/>
          </g>
          <path class="cls-5" d="M181.26,174.67a5.34,5.34,0,1,1-5.34,5.34A5.35,5.35,0,0,1,181.26,174.67Zm0-.77a6.11,6.11,0,1,0,6.11,6.11A6.12,6.12,0,0,0,181.26,173.9Z" transform="translate(-20.12 -17.95)"/>
          <path class="cls-6" d="M73.84,42.81A75.78,75.78,0,0,1,93.61,32.73l3.51,10.81A64.42,64.42,0,0,0,80.52,52Z" transform="translate(-20.12 -17.95)"/>
          <path class="cls-6" d="M95.18,32.22a75.89,75.89,0,0,1,21.92-3.46V40.12A64.73,64.73,0,0,0,98.69,43Z" transform="translate(-20.12 -17.95)"/>
          <path class="cls-6" d="M56.81,59.48a76.35,76.35,0,0,1,15.7-15.7L79.19,53A64.82,64.82,0,0,0,66,66.16Z" transform="translate(-20.12 -17.95)"/>
          <g>
            <path class="cls-7" d="M156.67,156.82a65.28,65.28,0,0,0,13.17-13.18l9.2,6.68A76.55,76.55,0,0,1,163.34,166Z" transform="translate(-20.12 -17.95)"/>
            <path class="cls-8" d="M72.51,166a76.55,76.55,0,0,1-15.7-15.69l9.2-6.68a65.07,65.07,0,0,0,13.18,13.18Z" transform="translate(-20.12 -17.95)"/>
            <path class="cls-9" d="M55.84,149a76.12,76.12,0,0,1-10.09-19.77l10.81-3.51A64.45,64.45,0,0,0,65,142.3Z" transform="translate(-20.12 -17.95)"/>
            <path class="cls-10" d="M45.24,127.65a76.35,76.35,0,0,1-3.45-21.93H53.15a64.72,64.72,0,0,0,2.9,18.41Z" transform="translate(-20.12 -17.95)"/>
            <path class="cls-11" d="M93.61,177.07A75.51,75.51,0,0,1,73.84,167l6.68-9.19a64.73,64.73,0,0,0,16.6,8.47Z" transform="translate(-20.12 -17.95)"/>
            <path class="cls-12" d="M138.73,166.26a64.73,64.73,0,0,0,16.6-8.47L162,167a75.51,75.51,0,0,1-19.77,10.09Z" transform="translate(-20.12 -17.95)"/>
            <path class="cls-13" d="M170.81,142.3a64.45,64.45,0,0,0,8.48-16.6l10.81,3.51A76.12,76.12,0,0,1,180,149Z" transform="translate(-20.12 -17.95)"/>
            <path class="cls-14" d="M41.79,104.07a76.23,76.23,0,0,1,3.45-21.92l10.81,3.51a64.78,64.78,0,0,0-2.9,18.41Z" transform="translate(-20.12 -17.95)"/>
            <path class="cls-15" d="M118.75,169.67a64.72,64.72,0,0,0,18.41-2.9l3.51,10.81A76.24,76.24,0,0,1,118.75,181Z" transform="translate(-20.12 -17.95)"/>
            <path class="cls-16" d="M117.1,181a76.24,76.24,0,0,1-21.92-3.46l3.51-10.81a64.72,64.72,0,0,0,18.41,2.9Z" transform="translate(-20.12 -17.95)"/>
            <path class="cls-17" d="M179.29,84.09a64.45,64.45,0,0,0-8.48-16.6l9.2-6.68A76.12,76.12,0,0,1,190.1,80.58Z" transform="translate(-20.12 -17.95)"/>
            <path class="cls-18" d="M155.33,52a64.42,64.42,0,0,0-16.6-8.47l3.51-10.81A75.78,75.78,0,0,1,162,42.81Z" transform="translate(-20.12 -17.95)"/>
            <path class="cls-19" d="M169.84,66.16A65,65,0,0,0,156.67,53l6.67-9.2A76.35,76.35,0,0,1,179,59.48Z" transform="translate(-20.12 -17.95)"/>
            <path class="cls-20" d="M182.7,104.07a64.78,64.78,0,0,0-2.9-18.41l10.81-3.51a76.23,76.23,0,0,1,3.45,21.92Z" transform="translate(-20.12 -17.95)"/>
            <path class="cls-21" d="M179.8,124.13a64.72,64.72,0,0,0,2.9-18.41h11.36a76.35,76.35,0,0,1-3.45,21.93Z" transform="translate(-20.12 -17.95)"/>
            <path class="cls-22" d="M137.16,43a64.73,64.73,0,0,0-18.41-2.91V28.76a75.89,75.89,0,0,1,21.92,3.46Z" transform="translate(-20.12 -17.95)"/>
            <path class="cls-23" d="M45.75,80.58A76.12,76.12,0,0,1,55.84,60.81L65,67.49a64.45,64.45,0,0,0-8.48,16.6Z" transform="translate(-20.12 -17.95)"/>
          </g>
          <g class="cls-24">
            <path class="cls-7" d="M147.47,144.1a49.12,49.12,0,0,0,9.66-9.66l6.55,4.76a57.78,57.78,0,0,1-11.45,11.45Z" transform="translate(-20.12 -17.95)"/>
            <path class="cls-8" d="M83.62,150.65A57.46,57.46,0,0,1,72.18,139.2l6.54-4.76a49.12,49.12,0,0,0,9.66,9.66Z" transform="translate(-20.12 -17.95)"/>
            <path class="cls-9" d="M71.16,137.81a57.41,57.41,0,0,1-7.36-14.42l7.7-2.5a48.66,48.66,0,0,0,6.21,12.16Z" transform="translate(-20.12 -17.95)"/>
            <path class="cls-10" d="M63.27,121.75a57.24,57.24,0,0,1-2.52-16h8.09A49.23,49.23,0,0,0,71,119.25Z" transform="translate(-20.12 -17.95)"/>
            <path class="cls-11" d="M99.44,159A56.66,56.66,0,0,1,85,151.66l4.76-6.55a48.72,48.72,0,0,0,12.17,6.21Z" transform="translate(-20.12 -17.95)"/>
            <path class="cls-12" d="M133.91,151.32a48.72,48.72,0,0,0,12.17-6.21l4.76,6.55A56.76,56.76,0,0,1,136.42,159Z" transform="translate(-20.12 -17.95)"/>
            <path class="cls-13" d="M158.14,133.05a48.66,48.66,0,0,0,6.21-12.16l7.7,2.5a57.08,57.08,0,0,1-7.36,14.42Z" transform="translate(-20.12 -17.95)"/>
            <path class="cls-14" d="M60.75,104a57.31,57.31,0,0,1,2.52-16l7.7,2.5A49.24,49.24,0,0,0,68.84,104Z" transform="translate(-20.12 -17.95)"/>
            <path class="cls-15" d="M118.79,154a48.85,48.85,0,0,0,13.49-2.13l2.5,7.7a57.3,57.3,0,0,1-16,2.52Z" transform="translate(-20.12 -17.95)"/>
            <path class="cls-16" d="M117.06,162.07a57.3,57.3,0,0,1-16-2.52l2.5-7.7A48.85,48.85,0,0,0,117.06,154Z" transform="translate(-20.12 -17.95)"/>
            <path class="cls-6" d="M85,58.13a57.31,57.31,0,0,1,14.43-7.36l2.5,7.7a49.06,49.06,0,0,0-12.17,6.21Z" transform="translate(-20.12 -17.95)"/>
            <path class="cls-17" d="M164.35,88.91a48.72,48.72,0,0,0-6.21-12.17L164.69,72a56.92,56.92,0,0,1,7.36,14.42Z" transform="translate(-20.12 -17.95)"/>
            <path class="cls-18" d="M146.08,64.68a49.06,49.06,0,0,0-12.17-6.21l2.51-7.7a57.41,57.41,0,0,1,14.42,7.36Z" transform="translate(-20.12 -17.95)"/>
            <path class="cls-19" d="M157.13,75.35a49.39,49.39,0,0,0-9.66-9.66l4.76-6.54a57.73,57.73,0,0,1,11.45,11.44Z" transform="translate(-20.12 -17.95)"/>
            <path class="cls-20" d="M167,104a48.87,48.87,0,0,0-2.13-13.5l7.7-2.5a57.31,57.31,0,0,1,2.52,16Z" transform="translate(-20.12 -17.95)"/>
            <path class="cls-6" d="M101.07,50.24a57.3,57.3,0,0,1,16-2.52v8.09a49.23,49.23,0,0,0-13.49,2.13Z" transform="translate(-20.12 -17.95)"/>
            <path class="cls-21" d="M164.88,119.25A48.85,48.85,0,0,0,167,105.76h8.09a57.24,57.24,0,0,1-2.52,16Z" transform="translate(-20.12 -17.95)"/>
            <path class="cls-22" d="M132.28,57.94a49.23,49.23,0,0,0-13.49-2.13V47.72a57.3,57.3,0,0,1,16,2.52Z" transform="translate(-20.12 -17.95)"/>
            <path class="cls-6" d="M72.18,70.59A57.41,57.41,0,0,1,83.62,59.15l4.76,6.54a49.12,49.12,0,0,0-9.66,9.66Z" transform="translate(-20.12 -17.95)"/>
            <path class="cls-23" d="M63.8,86.41A57.25,57.25,0,0,1,71.16,72l6.55,4.75A48.72,48.72,0,0,0,71.5,88.91Z" transform="translate(-20.12 -17.95)"/>
          </g>
          <path class="cls-25" d="M194.62,130.72l1.74.56a83.51,83.51,0,0,1-29.11,40l-1.08-1.48A81.66,81.66,0,0,0,194.62,130.72ZM70,172.33a82,82,0,0,0,47.08,15.3V185.8a80.25,80.25,0,0,1-46-15ZM41.23,130.72l-1.74.56a83.53,83.53,0,0,0,29.12,40l1.07-1.48A81.66,81.66,0,0,1,41.23,130.72Zm77.55,55.08v1.83a82,82,0,0,0,47.08-15.3l-1.07-1.48A80.26,80.26,0,0,1,118.78,185.8ZM196.89,80.14l-1.74.57a81.34,81.34,0,0,1,0,48.38l1.74.56a83.16,83.16,0,0,0,0-49.51ZM39.49,78.51l1.74.57A81.64,81.64,0,0,1,69.68,40l-1.07-1.48A83.58,83.58,0,0,0,39.49,78.51ZM118.78,24a80.33,80.33,0,0,1,46,15l1.07-1.48a82,82,0,0,0-47.08-15.29Zm-47.71,15a80.33,80.33,0,0,1,46-14.95V22.17A82,82,0,0,0,70,37.46ZM194.62,79.08l1.74-.57a83.56,83.56,0,0,0-29.11-40L166.17,40A81.64,81.64,0,0,1,194.62,79.08ZM37,104.9A81,81,0,0,1,40.7,80.71L39,80.14a83.16,83.16,0,0,0,0,49.51l1.74-.56A81.08,81.08,0,0,1,37,104.9Z" transform="translate(-20.12 -17.95)"/>
        </g>
        <g id="color">
          <circle id="orange" class="cls-26" cx="97.8" cy="86.95" r="41.45"/>
          <circle id="black" class="cls-27" cx="97.8" cy="86.95" r="29.22"/>
        </g>
        <g id="path">
          <g class="cls-28">
            <path class="cls-7" d="M179,150.32l-5.77-4.2a69.47,69.47,0,0,1-14.12,14.12l4.19,5.77A76.55,76.55,0,0,0,179,150.32Z" transform="translate(-20.12 -17.95)"/>
            <path class="cls-8" d="M72.51,166l4.19-5.77a69.17,69.17,0,0,1-14.11-14.12l-5.78,4.2A76.55,76.55,0,0,0,72.51,166Z" transform="translate(-20.12 -17.95)"/>
            <path class="cls-9" d="M61.62,144.79A68.46,68.46,0,0,1,52.54,127l-6.79,2.2A76.12,76.12,0,0,0,55.84,149Z" transform="translate(-20.12 -17.95)"/>
            <path class="cls-10" d="M52,125.44a69,69,0,0,1-3.1-19.72H41.79a76.35,76.35,0,0,0,3.45,21.93Z" transform="translate(-20.12 -17.95)"/>
            <path class="cls-11" d="M95.81,170.28A68.9,68.9,0,0,1,78,161.21L73.84,167a75.51,75.51,0,0,0,19.77,10.09Z" transform="translate(-20.12 -17.95)"/>
            <path class="cls-12" d="M162,167l-4.19-5.77A68.74,68.74,0,0,1,140,170.28l2.2,6.79A75.51,75.51,0,0,0,162,167Z" transform="translate(-20.12 -17.95)"/>
            <path class="cls-13" d="M183.31,127a68.74,68.74,0,0,1-9.07,17.78L180,149a76.12,76.12,0,0,0,10.09-19.77Z" transform="translate(-20.12 -17.95)"/>
            <path class="cls-14" d="M45.24,82.15a76.23,76.23,0,0,0-3.45,21.92h7.14A69,69,0,0,1,52,84.35Z" transform="translate(-20.12 -17.95)"/>
            <path class="cls-15" d="M138.47,170.79a69,69,0,0,1-19.72,3.1V181a76.24,76.24,0,0,0,21.92-3.46Z" transform="translate(-20.12 -17.95)"/>
            <path class="cls-16" d="M97.38,170.79l-2.2,6.79A76.24,76.24,0,0,0,117.1,181v-7.15A69,69,0,0,1,97.38,170.79Z" transform="translate(-20.12 -17.95)"/>
            <path class="cls-17" d="M174.24,65a69,69,0,0,1,9.07,17.79l6.79-2.21A76.12,76.12,0,0,0,180,60.81Z" transform="translate(-20.12 -17.95)"/>
            <path class="cls-18" d="M140,39.51a68.46,68.46,0,0,1,17.78,9.08L162,42.81a75.78,75.78,0,0,0-19.77-10.08Z" transform="translate(-20.12 -17.95)"/>
            <path class="cls-19" d="M163.34,43.78l-4.19,5.78a69.17,69.17,0,0,1,14.12,14.11L179,59.48A76.35,76.35,0,0,0,163.34,43.78Z" transform="translate(-20.12 -17.95)"/>
            <path class="cls-20" d="M190.61,82.15l-6.79,2.2a69,69,0,0,1,3.1,19.72h7.14A76.23,76.23,0,0,0,190.61,82.15Z" transform="translate(-20.12 -17.95)"/>
            <path class="cls-21" d="M194.06,105.72h-7.14a69,69,0,0,1-3.1,19.72l6.79,2.21A76.35,76.35,0,0,0,194.06,105.72Z" transform="translate(-20.12 -17.95)"/>
            <path class="cls-22" d="M138.47,39l2.2-6.78a75.89,75.89,0,0,0-21.92-3.46V35.9A69,69,0,0,1,138.47,39Z" transform="translate(-20.12 -17.95)"/>
            <path class="cls-23" d="M52.54,82.79A68.68,68.68,0,0,1,61.62,65l-5.78-4.19A76.12,76.12,0,0,0,45.75,80.58Z" transform="translate(-20.12 -17.95)"/>
          </g>
          <path class="cls-29" d="M143,95.66a26.68,26.68,0,1,0-49.69,19.41A34.4,34.4,0,0,0,143,95.66Z" transform="translate(-20.12 -17.95)"/>
          <path class="cls-7" d="M204.88,191.85H111.55A80.58,80.58,0,0,1,31,111.27V26.85A8.92,8.92,0,0,1,39.88,18H124.3a80.58,80.58,0,0,1,80.58,80.57ZM39.88,18.5a8.36,8.36,0,0,0-8.36,8.35v84.42a80.12,80.12,0,0,0,80,80h92.78V98.52a80.12,80.12,0,0,0-80-80Z" transform="translate(-20.12 -17.95)"/>
          <path class="cls-30" d="M185.94,36.89A87.06,87.06,0,0,1,204.6,64.5V18.22H158.32A87.08,87.08,0,0,1,185.94,36.89Z" transform="translate(-20.12 -17.95)"/>
          <path class="cls-7" d="M31.52,146.62A88.14,88.14,0,0,0,76.21,191.3H31.52Zm-.27-1.33v46.28H77.53a87.68,87.68,0,0,1-46.28-46.28Z" transform="translate(-20.12 -17.95)"/>
          <path class="cls-31" d="M182.14,18.22,176.9,29c-.69-.52-1.39-1-2.09-1.54l4.48-9.24Zm3.31,0-6.16,12.67c.68.55,1.36,1.11,2,1.69l7-14.36Zm-12.31,0-3,6.14c.72.46,1.45.92,2.16,1.39L176,18.22Zm-12.75.91c.77.36,1.54.72,2.31,1.1l1-2h-2.84Zm5,2.46c.75.4,1.5.81,2.24,1.24l2.24-4.61H167Zm32.41-3.37-10,20.56c.63.67,1.25,1.34,1.85,2l11-22.59Zm-6.16,0-8,16.44c.65.6,1.3,1.22,1.94,1.85l8.88-18.29Zm12.11,44.26.89-1.83V54.8l-2.3,4.73C202.79,60.51,203.26,61.49,203.71,62.48Zm-3.13-6.21,4-8.29V42.13L199,53.59C199.56,54.48,200.08,55.37,200.58,56.27Zm-3.42-5.64,7.44-15.32V29.46L195.5,48.2C196.07,49,196.62,49.82,197.16,50.63Zm6.75-32.41L191.74,43.28c.6.73,1.18,1.47,1.76,2.22l11.1-22.86V18.22Z" transform="translate(-20.12 -17.95)"/>
          <path class="cls-32" d="M53.72,191.57,59,180.79c.69.53,1.39,1,2.09,1.55l-4.48,9.23Zm-3.32,0,6.16-12.66c-.68-.56-1.36-1.12-2-1.7l-7,14.36Zm12.31,0,3-6.14c-.72-.45-1.45-.91-2.16-1.39l-3.66,7.53Zm12.75-.91c-.77-.35-1.54-.72-2.31-1.1l-1,2H75Zm-5-2.45c-.75-.41-1.5-.82-2.24-1.24L66,191.57h2.84Zm-32.4,3.36,10-20.55c-.63-.67-1.25-1.35-1.85-2l-11,22.59Zm6.15,0,8-16.43c-.65-.61-1.3-1.23-1.94-1.86l-8.88,18.29ZM32.14,147.31l-.89,1.84V155l2.3-4.74C33.06,149.29,32.59,148.31,32.14,147.31Zm3.14,6.22-4,8.29v5.84l5.57-11.46C36.29,155.32,35.78,154.43,35.28,153.53Zm3.41,5.63-7.44,15.32v5.85l9.1-18.74C39.78,160.79,39.23,160,38.69,159.16Zm-6.75,32.41,12.18-25c-.61-.74-1.19-1.48-1.77-2.23l-11.1,22.86v4.42Z" transform="translate(-20.12 -17.95)"/>
          <rect class="cls-33" x="178.87" y="126.35" width="1.99" height="43.89"/>
          <rect class="cls-34" x="178.87" y="156.31" width="1.99" height="13.94"/>
          <rect class="cls-35" x="175.41" y="134.59" width="1.99" height="35.65"/>
          <rect class="cls-36" x="175.41" y="158.93" width="1.99" height="11.32"/>
          <rect class="cls-37" x="171.96" y="150.52" width="1.99" height="19.72"/>
          <rect class="cls-38" x="171.96" y="162.98" width="1.99" height="7.27"/>
          <g>
            <rect class="cls-39" x="4.8" y="168.41" width="3.04" height="5.21"/>
            <rect class="cls-40" x="4.8" y="161.31" width="3.04" height="5.21"/>
            <rect class="cls-41" x="4.8" y="154.2" width="3.04" height="5.21"/>
            <rect class="cls-42" x="4.8" y="147.1" width="3.04" height="5.21"/>
            <rect class="cls-43" x="4.8" y="139.99" width="3.04" height="5.21"/>
            <rect class="cls-44" x="4.8" y="132.89" width="3.04" height="5.21"/>
            <rect class="cls-45" x="4.8" y="125.79" width="3.04" height="5.21"/>
            <rect class="cls-46" x="4.8" y="118.68" width="3.04" height="5.21"/>
            <rect class="cls-47" x="4.8" y="111.58" width="3.04" height="5.21"/>
            <rect class="cls-48" x="4.8" y="104.47" width="3.04" height="5.21"/>
            <rect class="cls-49" x="4.8" y="97.37" width="3.04" height="5.21"/>
            <rect class="cls-50" x="4.8" y="90.26" width="3.04" height="5.21"/>
            <rect class="cls-51" x="4.8" y="83.16" width="3.04" height="5.21"/>
            <rect class="cls-52" x="4.8" y="76.05" width="3.04" height="5.21"/>
            <rect class="cls-53" x="4.8" y="68.95" width="3.04" height="5.21"/>
            <rect class="cls-54" x="4.8" y="61.85" width="3.04" height="5.21"/>
            <rect class="cls-55" x="4.8" y="54.74" width="3.04" height="5.21"/>
            <rect class="cls-56" x="4.8" y="47.64" width="3.04" height="5.21"/>
            <rect class="cls-57" x="4.8" y="40.53" width="3.04" height="5.21"/>
            <rect class="cls-58" x="4.8" y="33.43" width="3.04" height="5.21"/>
            <rect class="cls-59" x="4.8" y="26.32" width="3.04" height="5.21"/>
            <rect class="cls-23" x="4.8" y="19.22" width="3.04" height="5.21"/>
          </g>
          <g>
            <rect class="cls-4" y="169.71" width="3.04" height="3.91"/>
            <rect class="cls-60" y="164.38" width="3.04" height="3.91"/>
            <rect class="cls-61" y="159.05" width="3.04" height="3.91"/>
            <rect class="cls-62" y="153.72" width="3.04" height="3.91"/>
            <rect class="cls-63" y="148.38" width="3.04" height="3.91"/>
            <rect class="cls-64" y="143.05" width="3.04" height="3.91"/>
            <rect class="cls-65" y="137.72" width="3.04" height="3.91"/>
            <rect class="cls-66" y="132.39" width="3.04" height="3.91"/>
            <rect class="cls-67" y="127.05" width="3.04" height="3.91"/>
            <rect class="cls-68" y="121.72" width="3.04" height="3.91"/>
            <rect class="cls-69" y="116.39" width="3.04" height="3.91"/>
            <rect class="cls-70" y="111.06" width="3.04" height="3.91"/>
            <rect class="cls-71" y="105.73" width="3.04" height="3.91"/>
            <rect class="cls-72" y="100.39" width="3.04" height="3.91"/>
            <rect class="cls-73" y="95.06" width="3.04" height="3.91"/>
            <rect class="cls-74" y="89.73" width="3.04" height="3.91"/>
            <rect class="cls-75" y="84.4" width="3.04" height="3.91"/>
            <rect class="cls-76" y="79.06" width="3.04" height="3.91"/>
            <rect class="cls-77" y="73.73" width="3.04" height="3.91"/>
            <rect class="cls-78" y="68.4" width="3.04" height="3.91"/>
            <rect class="cls-79" y="63.07" width="3.04" height="3.91"/>
            <rect class="cls-80" y="57.73" width="3.04" height="3.91"/>
          </g>
          <path class="cls-81" d="M39,26.06a1,1,0,1,1-1-1A1,1,0,0,1,39,26.06Z" transform="translate(-20.12 -17.95)"/>
          <path class="cls-82" d="M39,31.94a1,1,0,1,1-1-1A1,1,0,0,1,39,31.94Z" transform="translate(-20.12 -17.95)"/>
          <path class="cls-83" d="M39,37.81a1,1,0,1,1-1-1A1,1,0,0,1,39,37.81Z" transform="translate(-20.12 -17.95)"/>
          <path class="cls-84" d="M183.14,180a1.88,1.88,0,1,1-1.88-1.87A1.88,1.88,0,0,1,183.14,180Z" transform="translate(-20.12 -17.95)"/>
          <path class="cls-7" d="M117.93,155.3a50.41,50.41,0,1,1,50.4-50.4A50.46,50.46,0,0,1,117.93,155.3Zm0-100.26a49.86,49.86,0,1,0,49.85,49.86A49.92,49.92,0,0,0,117.93,55Z" transform="translate(-20.12 -17.95)"/>
          <path class="cls-85" d="M116.88,106.34,55.66,59.66,119,103.45a1.79,1.79,0,1,1-2,2.94Z" transform="translate(-20.12 -17.95)"/>
        </g>
        <text class="cls-86" transform="translate(79.67 104.47)">S</text>
      </g>
    </g>
  </g>
</svg>
