<svg id="Tesla" xmlns="http://www.w3.org/2000/svg" viewBox="0 0 163.79 163.09">
  <defs>
    <style>
      .cls-1 {
        fill: #efefef;
      }
    </style>
  </defs>
  <title>Tesla</title>
  <g>
    <path id="black" class="cls-1" d="M115.42,220.09,138.33,91.22c21.84,0,28.73,2.4,29.72,12.17,0,0,14.66-5.46,22-16.55-28.84-13.37-57.81-14-57.81-14L115.38,93.46h0L98.51,72.87s-29,.6-57.82,14c7.39,11.1,22.05,16.56,22.05,16.56,1-9.78,7.88-12.17,29.58-12.19l23.1,128.89Z" transform="translate(-33.51 -57)"/>
    <path class="cls-1" d="M115.41,66.92a188.91,188.91,0,0,1,77.31,15.51A62,62,0,0,0,197.3,73a224,224,0,0,0-81.9-16A224,224,0,0,0,33.51,73a78.77,78.77,0,0,0,4.58,9.47A188.88,188.88,0,0,1,115.4,66.92Z" transform="translate(-33.51 -57)"/>
  </g>
</svg>
