<svg xmlns="http://www.w3.org/2000/svg" viewBox="0 0 192.76 192.76">
  <defs>
    <style>
      .cls-1 {
        fill: #fff;
      }

      .cls-1, .cls-2, .cls-3, .cls-4, .cls-5, .cls-6 {
        fill-rule: evenodd;
      }

      .cls-2 {
        fill: #231815;
      }

      .cls-3 {
        fill: #d0121b;
      }

      .cls-4 {
        fill: #2aa738;
      }

      .cls-5 {
        fill: #fff100;
      }

      .cls-6 {
        fill: #ffe100;
      }
    </style>
  </defs>
  <title>FERRARI</title>
  <g id="path2">
    <polygon class="cls-1" points="0 0 192.76 0 192.76 192.76 0 192.76 0 0 0 0"/>
    <path class="cls-2" d="M161.17,282.39a5.86,5.86,0,0,1-5.86,5.86H67.44a5.86,5.86,0,0,1-5.86-5.86v-164a5.87,5.87,0,0,1,5.86-5.86h87.87a5.86,5.86,0,0,1,5.86,5.86v164Z" transform="translate(-15 -104)"/>
    <polygon class="cls-3" points="143.73 33.15 143.73 27.02 49.02 27.02 49.02 33.15 143.73 33.15 143.73 33.15"/>
    <polygon class="cls-1" points="49.02 19.22 49.02 25.36 143.73 25.36 143.73 19.22 49.02 19.22 49.02 19.22"/>
    <path class="cls-4" d="M158.73,121.56v-1.49a4.87,4.87,0,0,0-4.88-4.88H68.91A4.88,4.88,0,0,0,64,120.07v1.49Z" transform="translate(-15 -104)"/>
  </g>
  <g id="FERRARI">
    <g id="color">
      <path id="Yellow" class="cls-5" d="M64,138.81V280.69a4.89,4.89,0,0,0,4.89,4.88h84.94a4.88,4.88,0,0,0,4.88-4.88V138.81Z" transform="translate(-15 -104)"/>
      <path id="black" class="cls-2" d="M110,147.59c.69.36.86,1.18,1.58,1.52.32.29.37.75.74,1a5,5,0,0,1,4.79,1.82c.41.49,1.09.35,1.71.42a13.07,13.07,0,0,0,2.08-.08,3.57,3.57,0,0,1,1.43.34.51.51,0,0,1,.12.51c-.13.16-.41.07-.57.18a6.24,6.24,0,0,0-2.74,1.13,2.52,2.52,0,0,0,.92.34,8.1,8.1,0,0,1,2.79,2.11,5,5,0,0,0,1.26.39c1.55.35,1.76,2,2.93,3,0,0-.07.06-.08.1-1.27.19-1.55-1.52-2.64-1.6a6.91,6.91,0,0,1-4-1.24c-.25-.06-.6-.13-.77.08,0,.31.38.31.58.47,1,.21,1.47,1.29,2.22,1.92.33.35.91.19,1.39.29a5.86,5.86,0,0,1,3.68,1.85.72.72,0,0,1,.16.66.17.17,0,0,1-.24.07,6.53,6.53,0,0,0-1-1,2.86,2.86,0,0,0-1-.34c-1.16.18-2.73.6-3.68-.27l-.24-.07v.1c.37.54.73,1.35,1.48,1.5A7.8,7.8,0,0,1,125.4,164c.25.12.58.06.87.16a.27.27,0,0,1,.06.26c-.77.72-1.7,0-2.48-.13-.84-.33-1.88-.19-2.6-.71L120,163a.22.22,0,0,0-.24.16c.5.76,1.34,1.27,2,2a4.15,4.15,0,0,1,1.08,2c.57.59,1.5,1,1.39,2,.27.56.84.86,1.29,1.29a.35.35,0,0,1-.18.23c-1.12,0-1.85-1.09-2.55-1.84a12.6,12.6,0,0,1-3.53-2.5c-.06,0-.09,0-.11.06,0,.42.4.69.66,1.05,1.12,1,3,1.48,3.32,3.18.29,1.1,1.51,1.24,2.42,1.55.17.16.52.27.45.58a3.06,3.06,0,0,1-2,.11,4.52,4.52,0,0,1-2.11-1.45c-.78-.58-1.82-.49-2.63-.89-.12,0-.24,0-.26.15a.57.57,0,0,0,.31.71c1,.36,1.08,1.69,2.19,1.85a5.12,5.12,0,0,1,2.37,2.34c.28.35.42.86.89,1.08,0,.15-.13.21-.23.26-.77-.13-1.18-1.09-1.88-1.29s-1.41-.85-2.29-.79c-.14,0-.06.16,0,.24l.85.87c.07.09,0,.2-.11.26-.57.08-1-.44-1.42-.58a5.55,5.55,0,0,0-.92-.26.18.18,0,0,0-.11.29c.71,1,2,.67,2.93,1.26a5.09,5.09,0,0,0,2.55,1.45.39.39,0,0,1,.13.5,3.77,3.77,0,0,1-2.74-.31c-.87-.53-2-1.16-3-.48l.11.11a6.67,6.67,0,0,1,2.42.55,16.14,16.14,0,0,0,1.95,1.66c0,.09-.08.16-.13.24-.89-.25-1.63-1-2.61-.72a14,14,0,0,1-3.24.11s-.12.05-.08.13a4.22,4.22,0,0,0,1.14.58,5.25,5.25,0,0,1,3.44,2.32,3.31,3.31,0,0,0,3.32-.06c.11-.08.18-.34.37-.21s-.07.33-.13.48a4.11,4.11,0,0,1-4,.6,8.78,8.78,0,0,0-3.51-1.16c-.55-.2-1.12-.35-1.65-.5-.06,0-.12.08-.08.16s.33.15.52.24a8.08,8.08,0,0,1,3.58,2.16c.25.22.62.44.77.79,0,.16,0,.42-.13.5a4.32,4.32,0,0,1-1.11-.82,3.25,3.25,0,0,0-2.34-.76c-.06,0-.08.06,0,.13.33.29.83.24,1.2.55a4,4,0,0,1,1.4,1.71,4.22,4.22,0,0,0,1.13,1.06c0,.11-.11.17-.16.23-1.34-.41-2.27-1.77-3.57-2.18-.76-.4-1.7-.3-2.43-.69-.48-.23-.86-.65-1.39-.65-.19.08-.12.28-.16.44-.11,2.8,1.46,4.92,2.92,7.11a25.52,25.52,0,0,0,3.48,4,39.81,39.81,0,0,1,3.37,2.27,37,37,0,0,1,4.79,4.52,18.3,18.3,0,0,1,3.21,5.74c.2.23.58.17.89.16a8.81,8.81,0,0,0,3.56-1.53,8.69,8.69,0,0,0,3.6-7.37,28.76,28.76,0,0,0-.81-6.61c-.53-1.8-1.31-3.48-1.34-5.44a10.61,10.61,0,0,1,6.21-10.32h.1v.23a12.38,12.38,0,0,0-4,6.11,7.48,7.48,0,0,0-.11,2.95c0,.08.14.06.24.08a23.11,23.11,0,0,1,3.79-3.74c.59-.7,1-1.51,1.47-2.21,0,0,.06,0,.11.05a4.83,4.83,0,0,1-.53,2.32c-.73,1.31-2,2.43-2.47,3.84-.45,1.2-.89,2.8-.24,4.08a.42.42,0,0,0,.42.11c.61-.39.57-1.12,1.06-1.58.61-.93,1.77-1.44,2.15-2.5.1-.23.1-.58.37-.63a1.89,1.89,0,0,1,.16,1.55,9.21,9.21,0,0,0-2.13,4.63c-.53,2.58.42,4.95.6,7.48a17.35,17.35,0,0,1-.55,5.18,9.14,9.14,0,0,1-5.68,5.24c-.24.07-.06.26-.06.42.21.46.4.94.58,1.45a4.61,4.61,0,0,1,0,2.63,7.76,7.76,0,0,0,0,3.29l0,.32a.26.26,0,0,1-.24-.21c-.88-1.5-.83-3.36-1.16-5a5.13,5.13,0,0,0-1.21-1.71.2.2,0,0,0-.32.13c0,.68.73,1.06.77,1.76.53,2.2-.23,4.34-1.08,6.22-1,1.43-2.56,2.66-2.48,4.58-.08.07-.21,0-.29.05a1.39,1.39,0,0,1-.34-.92,4.26,4.26,0,0,1,.92-3.08c.88-1.7,1.7-3.73,1-5.71a.24.24,0,0,0-.34-.08c-.5.6-.22,1.53-.58,2.21a3.55,3.55,0,0,0-.4,1.58,4.47,4.47,0,0,1,0,1s-.11,0-.13,0a1.54,1.54,0,0,1-.35-.84c-.31-1.5.31-2.8.19-4.29a2.62,2.62,0,0,0-.61-2.06.51.51,0,0,0-.47,0c-.34.39-.16,1-.27,1.53-.75,4.45-4.81,8-8.49,10.45a4.12,4.12,0,0,0-1.06,4.47c.22.91,1.19,1.53,1.34,2.53-.07.9.26,1.84-.18,2.66a15.56,15.56,0,0,0-4.61,3.34,7,7,0,0,1-2.39,2.29c-.39.39-.36,1-.64,1.45a6.27,6.27,0,0,1-2.13,2c-.26.26-.08.72-.16,1.1,0,1.46-1.58,1.91-2.6,2.48-.92.29-2,.81-3,.37a1.35,1.35,0,0,1-.31-1.32,8.37,8.37,0,0,1,2-3.76,16.3,16.3,0,0,0,2-2.22,3.77,3.77,0,0,1,2.11-1.34c1.43-1.36,2.7-2.81,4.08-4.24.54-.82,1.28-1.56,1.24-2.55a30.69,30.69,0,0,1-3.79-7.08,10.36,10.36,0,0,1-.63-6.13,10,10,0,0,1,2.15-4.11,8,8,0,0,0,.93-3.74,4.89,4.89,0,0,1,.81-1.53c0-.17-.12-.24-.18-.29-.54,0-.89.56-1.06,1a16.58,16.58,0,0,1-.31,2.08,15.35,15.35,0,0,1-.69,1.89c-.4.65-.82,1.69-1.73,1.79a2.57,2.57,0,0,1-2-1.84c-.08-1.68-1.4-2.83-2.61-4-1.89-1.86-4.15-2.75-6.11-4.35-2.92-2.25-6.07-5-7.63-8.21-.11-.41.34-.5.4-.82l-.16-.1c-2.15.17-4.45,0-5.69-1.92-1.39-1-3-1.43-4.39-2.37-.9-.41-1.57-1.4-2.66-1.16-.75.41-.66,1.27-.61,2a17.34,17.34,0,0,1,.87,3,10.64,10.64,0,0,0,.82,3c.09.61.84,1,.89,1.63.14.39-.11,1,.32,1.26a2.92,2.92,0,0,1,2.39,2.11c.34,1.42.48,3.3-.63,4.42a1.88,1.88,0,0,1-.39.16c-1.42-.35-2.12-1.9-2.87-2.95s-.85-2.39-2-3.18c-.89-.82-.54-2.13-1-3.08a16,16,0,0,1-.37-2c-.3-1.85-.88-3.56-1.13-5.4-.18-1.11-.59-2.34-.16-3.44.46-.79.74-1.73,1.66-2.22,1.39-1.08,3.42-.36,4.92,0a13.8,13.8,0,0,1,2.87.5c.24-.21-.09-.42-.16-.6a1.82,1.82,0,0,0-.6-.5A22.38,22.38,0,0,1,84.21,182c-.45-.3-1-.86-1.47-.48s-.28,1.25-.53,1.85c-.31,1-.91,2.27-2.08,2.5-1.95,1.21-2.25,3.52-1.92,5.66a17.41,17.41,0,0,1,.5,2.39,7.15,7.15,0,0,1,.18,1.11c-.1.93-1,1.45-1.5,2.26-.41.36-.8.81-1.37.71-.35-.43-.3-1-.45-1.5a10.61,10.61,0,0,1,.3-3.08,8.54,8.54,0,0,1,.21-3.13c1.13-1.93,1.33-4.23,2.29-6.21a7.17,7.17,0,0,0,.65-2.32,17.24,17.24,0,0,1,1.43-3.95,2.81,2.81,0,0,1,1.71-2.13A4.25,4.25,0,0,1,86.81,177c1.17,1.44,2.86,1.83,4.27,2.85l1.29.81c.43.07.76-.29,1.16-.42.61,0,.93-.79,1.45-1.08,1.27-1.16,3-1.39,4.08-2.87.42-1.91,2.55-2.73,3.6-4.32,2.21-2.28,3.19-5.1,4.27-7.87a1.07,1.07,0,0,0-.45-1.1c-1.09-.2-2.27-.15-3.29-.45a19.14,19.14,0,0,1-2-.66,2.9,2.9,0,0,1-1.31,0c-1.23.34-2.92,1.47-4,.19a.32.32,0,0,1,.23-.35,7,7,0,0,0,2.29-.84.33.33,0,0,0,0-.31c-.12-.15-.3-.07-.42,0a11.6,11.6,0,0,1-3.13.71c-.78-.36-.41-1.32-.53-2,.08-1.12,1.12-1.84,1.53-2.82s1.48-.56,2.32-.65c2.57-.44,4.46-2.54,7-3.19.13-.22.53-.18.5-.47s-.75-.12-.47-.58c-.2-.2-.42-.08-.66-.11a5.42,5.42,0,0,0-3-.55,2.52,2.52,0,0,1-.61.11c-.06-.06,0-.15,0-.22a2.92,2.92,0,0,1,1.18-.52c.49-.16.88.17,1.4,0a.3.3,0,0,0,.08-.21,1.66,1.66,0,0,0-.9-.29c-.13-.07-.1-.25,0-.34.18-.25.6-.07.89-.16,1.57-.54,2.84.46,4.22.87a1.41,1.41,0,0,0,1.31-.34c0-.5-.56-.81-.37-1.34s.59-.9.82-1.37c.31-.09.29.31.52.45Z" transform="translate(-15 -104)"/>
    </g>
    <g id="path1">
      <path class="cls-1" d="M105.92,209.52s-.08-2.16.33-2,6.07,4.91,6.57,6.07,1.38.58,1.65-.25,1.35-4.5,2.1-4.66,1.9.08,1.49,1a19.4,19.4,0,0,0-1,2.18,7,7,0,0,1-.83,2.81c-.66,1-.38,1.66-1.32,1.83a9.92,9.92,0,0,1-1.84.24c-.58,0-2.49-.41-2.82-1.57s-.1-1.8-1.68-3.39a15.71,15.71,0,0,0-2.65-2.26Z" transform="translate(-15 -104)"/>
      <path class="cls-2" d="M106.93,147.64c.29.68,1.31,1.19.89,2.05-.62.08-1.08-.33-1.6-.5-.19-.13-.4-.26-.45-.47-.13-.56.66-.74.5-1.32a.4.4,0,0,1,.18-.26c.34-.09.27.34.48.5Z" transform="translate(-15 -104)"/>
      <path class="cls-1" d="M114.8,151.93c0,.06,0,.09,0,.16a.5.5,0,0,1-.5-.05c-.22,0-.48,0-.57-.24s.16-.15.26-.21a.71.71,0,0,1,.79.34Z" transform="translate(-15 -104)"/>
      <path class="cls-1" d="M115.19,153.35a.65.65,0,0,1-.63.16.31.31,0,0,1-.21-.19c0-.14.18-.17.31-.2s.44,0,.53.23Z" transform="translate(-15 -104)"/>
      <path class="cls-1" d="M108.69,153.72c-.08.3-.41.41-.66.47a.25.25,0,0,1-.26-.21c0-.26.3-.37.52-.42s.37-.06.4.16Z" transform="translate(-15 -104)"/>
      <path class="cls-1" d="M103.58,154.88c0,.33-.4.56-.63.76a8.38,8.38,0,0,1-2.42.84.92.92,0,0,1-.71,0c0-.15.22-.18.34-.26a12,12,0,0,1,3.27-1.4l.15,0Z" transform="translate(-15 -104)"/>
      <path class="cls-1" d="M107.11,155.56a1.4,1.4,0,0,1,.19,1.27,1.57,1.57,0,0,1-1.43-.16c-.35-.17-.63-.46-.94-.63a.49.49,0,0,1,.1-.58,1.72,1.72,0,0,1,1-.42,1.12,1.12,0,0,1,1,.52Z" transform="translate(-15 -104)"/>
      <path class="cls-1" d="M115.22,156.46c0,.21-.38.48,0,.6l1.26-.18c.08,0,.09.17,0,.26a11.76,11.76,0,0,0-2,1c-.17,0-.38.13-.53,0-.37-.46.07-.91.21-1.32a1,1,0,0,1,.87-.55l.11.16Z" transform="translate(-15 -104)"/>
      <path class="cls-1" d="M97,158.22a1,1,0,0,1,0,.69,2.49,2.49,0,0,1-1.36.76c-.24-.13-.22-.44-.16-.66.14-.42.3-.93.78-1.11.28,0,.56,0,.74.32Z" transform="translate(-15 -104)"/>
      <path class="cls-1" d="M98.4,158.25a.44.44,0,0,1-.21.45c-.16,0-.24-.09-.32-.16s0-.27.08-.37.35-.07.45.08Z" transform="translate(-15 -104)"/>
      <path class="cls-1" d="M107.77,159.83c0,.3-.38.36-.45.63a1,1,0,0,1-.31.6c-.56.06-1,.28-1.59.32-.09,0,0-.13,0-.18.72-.48,1.42-1,2.16-1.45.07,0,.18,0,.24.08Z" transform="translate(-15 -104)"/>
      <path class="cls-1" d="M100.08,160.14a.34.34,0,0,1-.18.34c-.17.05-.23-.08-.26-.18s0-.31.15-.34a.33.33,0,0,1,.29.18Z" transform="translate(-15 -104)"/>
      <path class="cls-1" d="M116.53,160.17c.1.15-.1.22-.18.29s-.23-.09-.13-.19a.3.3,0,0,1,.31-.1Z" transform="translate(-15 -104)"/>
      <path class="cls-1" d="M110.45,160.59c0,.81-.93,1.06-1.47,1.34a.39.39,0,0,1-.34-.05c.16-.59.82-.93,1.21-1.4a.37.37,0,0,1,.6.11Z" transform="translate(-15 -104)"/>
      <path class="cls-1" d="M116.93,161.38a.53.53,0,0,1-.32.32c-.09,0-.22,0-.23-.11a.21.21,0,0,1,.15-.24c.12,0,.3-.14.4,0Z" transform="translate(-15 -104)"/>
      <path class="cls-1" d="M111.56,161.85a1.31,1.31,0,0,1-.53,1,5.44,5.44,0,0,1-2,.6c-.12,0-.25-.05-.27-.15.11-.41.59-.37.92-.5.67-.19,1.09-.95,1.82-1l.08.1Z" transform="translate(-15 -104)"/>
      <path class="cls-1" d="M116.9,162.75a.62.62,0,0,1-.52.26.15.15,0,0,1,0-.23c.14-.1.47-.31.55,0Z" transform="translate(-15 -104)"/>
      <path class="cls-1" d="M116.85,163.72c-.06.33-.44.32-.66.42-.13-.06,0-.14,0-.21a.52.52,0,0,1,.68-.21Z" transform="translate(-15 -104)"/>
      <path class="cls-1" d="M116.85,165c.06.17-.13.32-.26.42s-.34.13-.5,0,0-.24.08-.34.48-.37.68-.13Z" transform="translate(-15 -104)"/>
      <path class="cls-1" d="M116.9,166.51c0,.17-.13.24-.23.32-.25,0-.57.13-.74-.05a.36.36,0,0,1,.26-.27c.18-.12.55-.24.71,0Z" transform="translate(-15 -104)"/>
      <path class="cls-1" d="M109.43,166.83a6.32,6.32,0,0,1-.63,2.16,20.13,20.13,0,0,1-4,5.24c-.08,0-.17,0-.24,0s-.12-.25-.08-.34c1-1.13,1.22-2.6,2.08-3.79a21.83,21.83,0,0,1,1.92-3.16c.14-.1.17-.31.37-.32a.5.5,0,0,1,.53.19Z" transform="translate(-15 -104)"/>
      <path class="cls-1" d="M116.75,167.91c-.1.3-.47.36-.74.42a.22.22,0,0,1-.16-.08c.05-.33.38-.41.66-.47.09-.05.18,0,.24.13Z" transform="translate(-15 -104)"/>
      <path class="cls-1" d="M116.77,169.25c-.16.35-.59.34-.92.4-.12-.08-.15-.21-.08-.29.22-.22.79-.55,1-.11Z" transform="translate(-15 -104)"/>
      <path class="cls-1" d="M116.75,170.65c0,.21-.12.33-.27.39s-.67.11-.87-.11c0-.36.42-.43.69-.55a.52.52,0,0,1,.45.27Z" transform="translate(-15 -104)"/>
      <path class="cls-1" d="M116.27,171.94c-.1.26-.39.25-.58.36a.38.38,0,0,1-.37-.21c-.1-.14,0-.25.11-.34a.7.7,0,0,1,.84.19Z" transform="translate(-15 -104)"/>
      <path class="cls-1" d="M115.9,173.33c0,.31-.33.42-.52.55s-.4,0-.5-.13.13-.37.29-.45.54-.3.73,0Z" transform="translate(-15 -104)"/>
      <path class="cls-1" d="M115.22,175s0,.12,0,.19a.56.56,0,0,1-.6.18c-.12-.08-.15-.2-.08-.29.1-.27.47-.18.66-.08Z" transform="translate(-15 -104)"/>
      <path class="cls-1" d="M114.93,176.36c-.05.22-.31.24-.45.34s-.26,0-.29-.13a.27.27,0,0,1,.19-.29c.14-.08.44-.13.55.08Z" transform="translate(-15 -104)"/>
      <path class="cls-1" d="M83.66,177.31c0,.38-.54.29-.82.39a.59.59,0,0,1-.53-.18c-.07-.24.19-.31.32-.4.32-.07.81-.16,1,.19Z" transform="translate(-15 -104)"/>
      <path class="cls-1" d="M114.46,177.73c0,.14-.14.21-.24.29a.51.51,0,0,1-.45-.08.28.28,0,0,1,.24-.34c.13,0,.37-.09.45.13Z" transform="translate(-15 -104)"/>
      <path class="cls-1" d="M105.21,178.88c0,.15.18.31.06.48-.37.16-.72-.14-1.06-.21a6.47,6.47,0,0,0-3.94-.08c-.32,0-.71.41-.9,0,.06-.44.56-.61.92-.74,1.33-.33,3.14-.8,4.43,0l.49.55Z" transform="translate(-15 -104)"/>
      <path class="cls-1" d="M114,178.83c0,.12-.13.16-.21.21a1.71,1.71,0,0,1-.31,0,.21.21,0,0,1-.08-.32.37.37,0,0,1,.6.08Z" transform="translate(-15 -104)"/>
      <path class="cls-1" d="M81.31,179.91c.09.58-.25,1-.31,1.61-.33.49-.33,1.25-1,1.52-.2-.13-.08-.34-.11-.55a9.43,9.43,0,0,1,.48-2,1.53,1.53,0,0,1,.68-.84c.11,0,.15.12.21.21Z" transform="translate(-15 -104)"/>
      <path class="cls-1" d="M87.08,182.81c0,.05,0,.14,0,.18a2.76,2.76,0,0,1-1.19-1.1l0-.14a2.42,2.42,0,0,1,1.21,1.06Z" transform="translate(-15 -104)"/>
      <path class="cls-1" d="M107.84,182.52a1.21,1.21,0,0,1,.06,1.18c-.37.27-.8-.07-1.13-.21-.18-.15-.32-.33-.21-.53a.94.94,0,0,1,.79-.6.82.82,0,0,1,.49.16Z" transform="translate(-15 -104)"/>
      <path class="cls-1" d="M92.55,183a16.49,16.49,0,0,1-.81,2.76,2.89,2.89,0,0,1-1.53,1.77.15.15,0,0,1-.16-.11v-.16a14.09,14.09,0,0,0,1.45-3.34,3.16,3.16,0,0,1,.82-1.13c.12,0,.18.1.23.21Z" transform="translate(-15 -104)"/>
      <path class="cls-1" d="M112.14,187.62a16.52,16.52,0,0,0,2.66,5.82c.51.76,1.19,1.45,1.73,2.24a2.25,2.25,0,0,1-1-.47,11.53,11.53,0,0,1-4.08-6.09,3.31,3.31,0,0,1-.24-1.84.37.37,0,0,1,.27-.23c.33-.05.5.3.63.57Z" transform="translate(-15 -104)"/>
      <path class="cls-1" d="M80.81,187.31a1.42,1.42,0,0,1-.55,1h-.1a1.12,1.12,0,0,1,.5-1.15.16.16,0,0,1,.15.13Z" transform="translate(-15 -104)"/>
      <path class="cls-1" d="M88.79,192.26c.06.08.18.19.11.34s-.26.07-.35.05c-1.09-.3-1.87-1.32-2.89-1.73a.42.42,0,0,1,.42,0,8.41,8.41,0,0,1,2.71,1.32Z" transform="translate(-15 -104)"/>
      <path class="cls-1" d="M81,194.34a10,10,0,0,1,.55,2.87c0,.13-.17,0-.23,0a8,8,0,0,1-.87-3.26.85.85,0,0,1,.24-.71c.46.07.19.71.31,1.08Z" transform="translate(-15 -104)"/>
      <path class="cls-1" d="M77.21,195.47a.39.39,0,0,1-.24.26.32.32,0,0,1-.29-.21c0-.13.13-.17.21-.21a.33.33,0,0,1,.32.16Z" transform="translate(-15 -104)"/>
      <path class="cls-1" d="M141.22,198.13a10.48,10.48,0,0,1-.23,6,8.82,8.82,0,0,1-3.26,4.29.83.83,0,0,1-.38,0c-.27-.41.1-.81.3-1.13a13.08,13.08,0,0,0,2.79-5,23.25,23.25,0,0,0,.1-5.27c0-.08.15-.18.24-.05a9.2,9.2,0,0,1,.44,1.19Z" transform="translate(-15 -104)"/>
      <path class="cls-1" d="M100.85,199.89c1.54,1.42,2.48,3.15,4.18,4.42a16.18,16.18,0,0,1,1.74,2v0h-.08a66.09,66.09,0,0,1-5.48-4.18c-.83-.78-1.43-1.63-2.13-2.42-.07-.32-.27-.72,0-1s.59,0,.85.21l.92.87Z" transform="translate(-15 -104)"/>
      <path class="cls-1" d="M116,201.92c.39.7-.38,1.19-.55,1.81-.2.2-.07.57-.37.71a.38.38,0,0,1-.37-.15,4.44,4.44,0,0,1,.26-1.74c0-.31,0-.63.37-.74a.47.47,0,0,1,.66.11Z" transform="translate(-15 -104)"/>
      <path class="cls-1" d="M86.08,206.16a.37.37,0,0,1-.13.39.43.43,0,0,1-.37,0c-.12-.15-.29-.25-.21-.43a.34.34,0,0,1,.26-.18.36.36,0,0,1,.45.24Z" transform="translate(-15 -104)"/>
      <path class="cls-2" d="M107.48,209.71a7.16,7.16,0,0,1,3.55,5.13,10.17,10.17,0,0,0,1.87,1.71.77.77,0,0,1,.16.69l-.11.24a14.31,14.31,0,0,0,0,5.57,22.81,22.81,0,0,0,1.92,5c0,.58-.55,1-.68,1.6a1,1,0,0,1-.87.63c-1.5,0-2.64-.92-3.9-1.44a17.7,17.7,0,0,0-5.21-1.35c-1.39-.7-3.26,0-4.63-.63-.41-.72-1.28-.23-1.84-.31a5.3,5.3,0,0,1-3.82-.11c-1.41-.44-2.39-1.87-3.11-3a.39.39,0,0,1,.08-.42,3.68,3.68,0,0,1,3.16-.31,8.15,8.15,0,0,1,4.16.65c.73.17,1.34-.36,2.13-.15a6.22,6.22,0,0,1,2.29.84c1.93.49,3.79,1.24,6,1.18.74,0,1.72.42,2.29-.23.4-1-.68-1.64-1-2.43a31.36,31.36,0,0,1-4.66-10.89,7.34,7.34,0,0,1-.13-2.37.62.62,0,0,1,.5-.4,3,3,0,0,1,1.87.82Z" transform="translate(-15 -104)"/>
      <path class="cls-1" d="M128.8,212.21a1.82,1.82,0,0,1-.32,1.84.18.18,0,0,1-.23-.16,3.6,3.6,0,0,0-.45-1.34.7.7,0,0,1,.4-.76c.25,0,.46.2.6.42Z" transform="translate(-15 -104)"/>
      <path class="cls-1" d="M116.22,216.76c0,.69-.54,1.21-.66,1.9a6.63,6.63,0,0,0-.45,1.45c-.07,0-.13.1-.21.1a3.25,3.25,0,0,1,0-2,3,3,0,0,1,1-1.6c.13-.06.25,0,.32.15Z" transform="translate(-15 -104)"/>
      <path class="cls-1" d="M94.29,224c.08.15-.14.3-.26.39a.74.74,0,0,1-.48.08.62.62,0,0,1-.29-.29c-.08-.2.13-.21.21-.29a.74.74,0,0,1,.82.11Z" transform="translate(-15 -104)"/>
      <path class="cls-1" d="M100.58,224.37c0,.07-.09.08-.13.13a.66.66,0,0,1-.42-.1.11.11,0,0,1,.1-.16.4.4,0,0,1,.45.13Z" transform="translate(-15 -104)"/>
      <path class="cls-1" d="M104.45,225.42c.4.05.85.05,1.29.11a10.81,10.81,0,0,1,2.5.58s.17.09.13.24-.43,0-.63.07c-.84-.52-1.91,0-2.68-.57-.63-.35-1.44-.21-2-.69-.08-.11-.11-.21,0-.26a3.44,3.44,0,0,1,1.37.52Z" transform="translate(-15 -104)"/>
      <path class="cls-1" d="M117,225.79a6.46,6.46,0,0,0,.31,2.24c0,.08-.14.11-.18.08a11.82,11.82,0,0,1-1-2.26c0-.36,0-.74.29-.87s.45.48.58.81Z" transform="translate(-15 -104)"/>
      <path class="cls-1" d="M112.4,225.66c.07.19-.14.33-.26.42s-.31.17-.45.06c-.08-.28.22-.44.39-.53s.21,0,.32,0Z" transform="translate(-15 -104)"/>
      <path class="cls-1" d="M121.43,232.93c0,.21-.26.38-.42.55a.18.18,0,0,1-.19-.11.35.35,0,0,1,.19-.5c.09-.08.35-.15.42.06Z" transform="translate(-15 -104)"/>
      <path class="cls-1" d="M118.43,234.43c0,.42-.48.75-.71,1.16a14.39,14.39,0,0,1-2,2c-.38.44-.9.64-1.31,1l-.11,0a1.19,1.19,0,0,1,.4-.81c.86-1,1.81-1.8,2.6-2.72a3.12,3.12,0,0,1,1.11-.65Z" transform="translate(-15 -104)"/>
      <path class="cls-1" d="M112.16,240.38c0,.29-.29.46-.5.63s-.25.11-.34,0a.54.54,0,0,1,.19-.53c.14-.21.48-.44.65-.13Z" transform="translate(-15 -104)"/>
      <path class="cls-1" d="M109.27,244.45a1.52,1.52,0,0,1-.37,1,1.56,1.56,0,0,1-.79.18c-.21-.33.1-.56.26-.76s.56-.73.9-.4Z" transform="translate(-15 -104)"/>
      <path class="cls-2" d="M148.1,260.57c1.57,0,2.84-.46,2.84-1s-1.27-1-2.84-1-2.83.45-2.83,1,1.28,1,2.83,1Z" transform="translate(-15 -104)"/>
      <path class="cls-2" d="M76.93,273.56v2.16H68.5v-2.16h1.56s.83.05.83-1V261.43a.47.47,0,0,0-.52-.52H68.84V258.6h74v1.93H75.32a.82.82,0,0,0-.74.92v4.77h1a.46.46,0,0,0,.5-.51v-.86l1.58,0v4.67H76.07v-1s0-.42-.37-.44H74.58v4.64s0,.86.78.86Z" transform="translate(-15 -104)"/>
      <path class="cls-2" d="M85.22,274.68a1,1,0,0,1-.92-1.09v-3.38h7.09v-4.53s.09-2.5-2.95-2.5H83.06a2.12,2.12,0,0,0-2.3,2.38v8a2.25,2.25,0,0,0,2.45,2.16h5.71s2.46,0,2.46-2.16V271.9H88v1.66s0,1.12-.86,1.12Z" transform="translate(-15 -104)"/>
      <path class="cls-2" d="M104.11,270.05h-3v-4.49s.13-1-.49-.56-2.47,1.48-2.53,2.45v6.42h1.29v1.85h-6v-1.85h1.4v-9.08H93.47v-1.61h4.61V265s1.83-1.69,3.43-1.72,2.59.5,2.6,2.08v4.69Z" transform="translate(-15 -104)"/>
      <path class="cls-2" d="M126.93,263.18s2.6-.16,2.6,2.86v7.83h1l0,1.85h-8.85a2.13,2.13,0,0,1-2.18-2.16v-3.39s-.06-1.76,2.18-1.76h4.39v-3.53s0-.78-.7-.79h-1.69a.77.77,0,0,0-.78.85v1.86h-3.21V265s-.17-1.78,2.09-1.78Z" transform="translate(-15 -104)"/>
      <path class="cls-2" d="M117.6,270.05h-3v-4.49s.13-1-.5-.56-2.46,1.48-2.51,2.45v6.42h1.28v1.85h-6v-1.85h1.4l0-9.08H107v-1.61h4.61l0,1.82s1.82-1.69,3.43-1.72,2.56.5,2.59,2.08v4.69Z" transform="translate(-15 -104)"/>
      <path class="cls-2" d="M143,270.05h-3.05v-4.49s.13-1-.49-.56-2.48,1.48-2.53,2.45v6.42h1.27v1.85h-6v-1.85h1.39v-9.08h-1.27v-1.61h4.6V265s1.82-1.69,3.43-1.72,2.57.5,2.61,2.08v4.69Z" transform="translate(-15 -104)"/>
      <path class="cls-2" d="M149.91,273.49s.05.38.4.38h.77v1.85h-6v-1.85h.78s.46,0,.43-.41v-8.3s.07-.46-.29-.46h-.85v-1.52h6v1.54h-1s-.31,0-.31.38v8.39Z" transform="translate(-15 -104)"/>
      <path class="cls-6" d="M84.3,269.09H88l0-3.85a.82.82,0,0,0-.92-.84h-2a.77.77,0,0,0-.8.76v3.93Z" transform="translate(-15 -104)"/>
      <path class="cls-6" d="M126.08,269.5v5.18h-2.36a.74.74,0,0,1-.73-.81V270.3a.77.77,0,0,1,.8-.8Z" transform="translate(-15 -104)"/>
    </g>
  </g>
</svg>
